<svg width="21" height="21" viewBox="0 0 21 21" fill="none" xmlns="http://www.w3.org/2000/svg">
<path fill-rule="evenodd" clip-rule="evenodd" d="M21 11.9967H0V2.49931C0 1.11898 1.11929 0 2.5 0H18.5C19.8807 0 21 1.11898 21 2.49931V11.9967ZM21 13.4963V12.9964H0V13.4963C0 14.8766 1.11929 15.9956 2.5 15.9956H18.5C19.8807 15.9956 21 14.8766 21 13.4963ZM16.25 20.2502C16.25 19.8361 15.9142 19.5004 15.5 19.5004H13.921L13.4198 16.9953H7.8L7.29885 19.5004H5.5C5.08579 19.5004 4.75 19.8361 4.75 20.2502C4.75 20.6643 5.08579 21 5.5 21H15.5C15.9142 21 16.25 20.6643 16.25 20.2502Z" fill="#C86DD7"/>
</svg>
